HIERARCHY
ROOT RootJoint
{
    OFFSET   0.000000   0.000000   0.000000
    CHANNELS 6 Xposition Yposition Zposition Xrotation Yrotation Zrotation
    JOINT pelvis_lowerback
    {
        OFFSET   0.000000   0.093605   0.000000
        CHANNELS 3 Xrotation Yrotation Zrotation
        JOINT lowerback_torso
        {
            OFFSET   0.000000   0.100000   0.000000
            CHANNELS 3 Xrotation Yrotation Zrotation
            JOINT torso_head
            {
                OFFSET   0.000000   0.282350   0.000000
                CHANNELS 3 Xrotation Yrotation Zrotation
                End Site
                {
                    OFFSET   0.000000   0.192650   0.000000
                }
            }
            JOINT rTorso_Clavicle
            {
                OFFSET  -0.001000   0.157500   0.000000
                CHANNELS 3 Xrotation Yrotation Zrotation
                JOINT rShoulder
                {
                    OFFSET  -0.117647   0.000000   0.000000
                    CHANNELS 3 Xrotation Yrotation Zrotation
                    JOINT rElbow
                    {
                        OFFSET  -0.245000   0.000000   0.000000
                        CHANNELS 3 Xrotation Yrotation Zrotation
                        JOINT rWrist
                        {
                            OFFSET  -0.240000   0.000000   0.000000
                            CHANNELS 3 Xrotation Yrotation Zrotation
                            End Site
                            {
                                OFFSET  -0.116353  -0.002500   0.000000
                            }
                        }
                    }
                }
            }
            JOINT lTorso_Clavicle
            {
                OFFSET   0.001000   0.157500   0.000000
                CHANNELS 3 Xrotation Yrotation Zrotation
                JOINT lShoulder
                {
                    OFFSET   0.117647   0.000000   0.000000
                    CHANNELS 3 Xrotation Yrotation Zrotation
                    JOINT lElbow
                    {
                        OFFSET   0.245000   0.000000   0.000000
                        CHANNELS 3 Xrotation Yrotation Zrotation
                        JOINT lWrist
                        {
                            OFFSET   0.240000   0.000000   0.000000
                            CHANNELS 3 Xrotation Yrotation Zrotation
                            End Site
                            {
                                OFFSET   0.116353  -0.002500   0.000000
                            }
                        }
                    }
                }
            }
        }
    }
    JOINT rHip
    {
        OFFSET  -0.100000  -0.051395   0.000000
        CHANNELS 3 Xrotation Yrotation Zrotation
        JOINT rKnee
        {
            OFFSET   0.000000  -0.410000   0.000000
            CHANNELS 3 Xrotation Yrotation Zrotation
            JOINT rAnkle
            {
                OFFSET   0.000000  -0.390000   0.000000
                CHANNELS 3 Xrotation Yrotation Zrotation
                JOINT rToeJoint
                {
                    OFFSET   0.000000  -0.050000   0.130000
                    CHANNELS 3 Xrotation Yrotation Zrotation
                    End Site
                    {
                        OFFSET  -0.010000   0.002000   0.060000
                    }
                }
            }
        }
    }
    JOINT lHip
    {
        OFFSET   0.100000  -0.051395   0.000000
        CHANNELS 3 Xrotation Yrotation Zrotation
        JOINT lKnee
        {
            OFFSET   0.000000  -0.410000   0.000000
            CHANNELS 3 Xrotation Yrotation Zrotation
            JOINT lAnkle
            {
                OFFSET   0.000000  -0.390000   0.000000
                CHANNELS 3 Xrotation Yrotation Zrotation
                JOINT lToeJoint
                {
                    OFFSET   0.000000  -0.050000   0.130000
                    CHANNELS 3 Xrotation Yrotation Zrotation
                    End Site
                    {
                        OFFSET   0.010000   0.002000   0.060000
                    }
                }
            }
        }
    }
}
MOTION
Frames: 14
Frame Time:   0.008333
 -2.376719   0.925631   3.975860   0.000000   0.000000   0.000000   0.000000   0.000000   0.000000   0.000000   0.000000   0.000000   0.000000   0.000000   0.000000   0.000000   0.000000   0.000000   0.000000   0.000000   0.000000   0.000000   0.000000   0.000000   0.000000   0.000000   0.000000   0.000000   0.000000   0.000000   0.000000   0.000000   0.000000   0.000000   0.000000   0.000000   0.000000   0.000000   0.000000   0.000000   0.000000   0.000000   0.000000   0.000000   0.000000   0.000000   0.000000   0.000000   0.000000   0.000000   0.000000   0.000000   0.000000   0.000000   0.000000   0.000000   0.000000   0.000000   0.000000   0.000000   0.000000   0.000000   0.000000
 -2.376708   0.926050   3.975951  -0.225577  -0.053202  -0.028013   0.159476  -0.025126   0.029567   0.163561  -0.129864  -0.005185  -0.112580  -0.026756   0.046024   0.184829  -0.180226   0.064063   0.805785   0.361602   2.212063   0.023042   1.152859  -0.011170   0.342174  -0.594447  -2.783164   0.286779   0.394143  -0.224217   1.188531  -0.026533  -2.084255   0.024038  -1.182593   0.016448   0.425188   0.380338   2.820111   0.050805   0.115129  -0.107354   0.551836   0.000654   0.000294  -0.639923  -0.134235  -0.046761  -0.126642  -0.000201   0.000079   0.013762  -0.173197   0.186808   0.924621  -0.001299  -0.001814  -0.947717   0.255289   0.188468   0.221627  -0.000668   0.000056
 -2.376737   0.926791   3.976120  -0.496006  -0.181461  -0.056341   0.302908  -0.040660   0.053385   0.355181  -0.238970  -0.015183  -0.205802  -0.059261   0.095816   0.363722  -0.258829   0.781179   1.578967   0.844698   4.941992   0.053237   2.290934  -0.019334   0.716479  -0.787714  -4.914468   0.573960   0.718833  -1.117275   2.354471  -0.148753  -4.709156   0.055343  -2.329479   0.028679   0.898076   0.440668   4.989487   0.115790   0.226011  -0.328538   1.138764   0.001801   0.000116  -1.239376  -0.260705  -0.092340  -0.281242  -0.000559   0.000255   0.107066  -0.336793   0.505085   1.923791  -0.003672  -0.003904  -1.832351   0.494777   0.370364   0.389917  -0.001226  -0.000028
 -2.376797   0.927481   3.976352  -0.757559  -0.348461  -0.081264   0.419673  -0.052189   0.067745   0.525743  -0.333741  -0.033079  -0.295607  -0.090915   0.143900   0.528046  -0.266724   1.904435   2.309674   1.411080   8.005141   0.082942   3.373139  -0.024509   1.085412  -0.806535  -6.291621   0.847811   0.965892  -2.419488   3.490187  -0.367871  -7.683222   0.086161  -3.414232   0.037072   1.360400   0.371299   6.386579   0.165059   0.325104  -0.647075   1.692053   0.003089  -0.000303  -1.799232  -0.380046  -0.136921  -0.429548  -0.000949   0.000443   0.240142  -0.487280   0.924218   2.890703  -0.006455  -0.005591  -2.657255   0.717070   0.544495   0.542372  -0.001740  -0.000140
 -2.376882   0.927850   3.976642  -0.999305  -0.534016  -0.103295   0.514098  -0.065270   0.072863   0.670201  -0.422595  -0.058345  -0.384480  -0.120835   0.189266   0.678684  -0.233014   3.262115   2.996236   2.043719  11.290652   0.108647   4.393784  -0.027443   1.444890  -0.740334  -7.103336   1.107020   1.152532  -3.954526   4.595741  -0.680778 -10.889291   0.112985  -4.436746   0.042674   1.808943   0.228214   7.203438   0.195104   0.414463  -1.043736   2.203168   0.004315  -0.000776  -2.322708  -0.492447  -0.180431  -0.571730  -0.001333   0.000609   0.397427  -0.624949   1.422649   3.807611  -0.009230  -0.006726  -3.427783   0.923382   0.710759   0.677837  -0.002159  -0.000238
 -2.376994   0.927697   3.976988  -1.220045  -0.728960  -0.122688   0.590658  -0.082518   0.068019   0.791900  -0.509794  -0.093251  -0.471165  -0.148946   0.232706   0.816875  -0.177630   4.741255   3.637021   2.730108  14.724485   0.128929   5.351768  -0.028754   1.792076  -0.632713  -7.525079   1.350768   1.294556  -5.617037   5.656588  -1.076743 -14.213607   0.134254  -5.398548   0.046161   2.243046   0.036857   7.604395   0.207913   0.496210  -1.500861   2.674200   0.005376  -0.001223  -2.812168  -0.598074  -0.222739  -0.707096  -0.001680   0.000741   0.571855  -0.750479   1.982657   4.672929  -0.011760  -0.007355  -4.147750   1.114842   0.869168   0.798085  -0.002471  -0.000310
 -2.377173   0.926859   3.977386  -1.421188  -0.928259  -0.137376   0.653014  -0.104118   0.046689   0.895324  -0.596386  -0.150904  -0.554405  -0.175426   0.277423   0.944658  -0.114443   6.272366   4.230672   3.460370  18.260933   0.143519   6.247878  -0.028927   2.124532  -0.509258  -7.680733   1.580382   1.405499  -7.373013   6.620925  -1.524840 -17.459318   0.149142  -6.302578   0.047710   2.662583  -0.193443   7.655931   0.206484   0.571822  -2.002029   3.108778   0.006214  -0.001609  -3.269768  -0.697203  -0.263767  -0.835350  -0.001968   0.000837   0.758895  -0.864758   2.590136   5.488557  -0.013940  -0.007577  -4.820474   1.292439   1.019770   0.905168  -0.002684  -0.000359
 -2.377292   0.924655   3.977396  -1.416371  -1.121600  -0.165386   0.625490  -0.135617   0.074637   0.919974  -0.643279  -0.226896  -0.718252  -0.312794   0.259196   1.154684  -0.001246   7.173757   4.910428   4.165877  21.749125   0.152938   7.205727  -0.031479   2.447340  -0.301950  -6.904430   1.865070   1.474481  -8.351746   7.329654  -2.035152 -20.806320   0.157468  -7.250381   0.048416   3.061289  -0.528955   6.750380  -0.112587   0.420259  -2.452754   3.633767   0.007063  -0.003103  -3.343125  -0.900678  -0.152666  -0.768808  -0.001352   0.000350   0.814832  -0.841352   3.158685   5.765639  -0.012530  -0.006290  -5.364233   1.549408   1.087048   1.069547  -0.003016  -0.000129
 -2.377365   0.921292   3.977218  -1.385616  -1.263457  -0.196122   0.635088  -0.185065   0.111835   0.941335  -0.702229  -0.290048  -0.880087  -0.444917   0.234829   1.340918   0.121738   7.849608   5.503383   4.866871  24.895602   0.154050   8.106195  -0.032807   2.769534  -0.046590  -6.165198   2.117089   1.508685  -9.078883   7.956995  -2.560310 -23.808823   0.157390  -8.145836   0.048173   3.446825  -0.931020   5.900410  -0.459117   0.266677  -2.866210   4.116819   0.007418  -0.003969  -3.405518  -1.094316  -0.049787  -0.668722  -0.000775  -0.000157   0.820845  -0.815387   3.676563   5.932879  -0.010766  -0.005099  -5.877525   1.789764   1.152368   1.212454  -0.003090   0.000084
 -2.377537   0.919974   3.977138  -1.428684  -1.421895  -0.638820   0.707175  -0.220404   0.474612   1.007343  -0.749763  -0.199046  -1.024042  -0.567429   0.222323   1.503742   0.255836   8.525428   6.016446   5.553979  27.789561   0.151426   8.942667  -0.032871   3.077874   0.180316  -5.647808   2.341041   1.520462  -9.855459   8.508673  -3.093968 -26.614259   0.153755  -8.982354   0.047068   3.815020  -1.312138   5.258580  -0.906989  -0.008128  -2.454837   4.892093   0.005868  -0.006328  -2.945027  -1.376677   0.267988  -0.527044  -0.000952  -0.001039   0.900131  -0.788572   4.514912   6.062857  -0.009089  -0.004169  -6.350391   2.016602   1.217611   1.401836  -0.003218   0.000251
 -2.377182   0.919796   3.977362  -1.497816  -1.464108  -0.544362   0.768102  -0.299562   0.385748   1.082448  -0.831314  -0.262894  -1.149757  -0.683461   0.205161   1.667376   0.363174   9.179575   6.468066   6.214484  30.529780   0.145818   9.724884  -0.032015   3.371474   0.403727  -5.128487   2.544196   1.524150 -10.483705   8.999561  -3.614535 -29.171002   0.146822  -9.764103   0.044892   4.167049  -1.689336   4.689793  -1.138850  -0.172285  -2.615153   5.464185   0.004855  -0.006250  -2.914767  -1.553405   0.383002  -0.379062  -0.000826  -0.001351   0.824874  -0.667724   4.411902   6.396047  -0.007253  -0.003026  -6.536748   2.298620   1.124159   1.568452  -0.002421   0.000748
 -2.376874   0.919666   3.977728  -1.533962  -1.547033  -0.462433   0.799056  -0.347924   0.343570   1.135962  -0.893767  -0.335247  -1.268802  -0.790319   0.175573   1.820978   0.455828   9.695728   6.864750   6.842849  33.046129   0.137533  10.455700  -0.030430   3.651495   0.626976  -4.637804   2.738509   1.542573 -10.978854   9.442567  -4.106991 -31.516504   0.137337 -10.493848   0.042098   4.501378  -2.060567   4.187659  -1.340569  -0.291685  -2.754328   5.930353   0.003980  -0.005932  -2.946245  -1.702332   0.460075  -0.275011  -0.000683  -0.001415   0.766778  -0.613089   4.304321   6.686297  -0.005766  -0.002444  -6.818626   2.499438   1.146072   1.700190  -0.001925   0.000815
 -2.376655   0.919600   3.978114  -1.533611  -1.568483  -0.410480   0.817150  -0.414244   0.335718   1.171943  -0.966092  -0.386077  -1.383822  -0.890800   0.148471   1.965602   0.531950  10.113643   7.214526   7.433332  35.349995   0.127696  11.134602  -0.028547   3.916484   0.827631  -4.242432   2.916932   1.560702 -11.378207   9.839223  -4.576115 -33.660599   0.126495 -11.173817   0.038953   4.818990  -2.409904   3.789050  -1.503914  -0.322391  -2.841846   6.304016   0.003240  -0.004981  -3.133274  -1.750646   0.564808  -0.279825  -0.000543  -0.001127   0.684982  -0.580753   4.238321   6.934621  -0.004590  -0.001897  -7.103860   2.679340   1.178070   1.814373  -0.001547   0.000856
 -2.376489   0.919561   3.978588  -1.549297  -1.635729  -0.377951   0.873098  -0.411266   0.286919   1.184159  -0.987270  -0.348365  -1.438430  -0.975846   0.141026   2.079582   0.513559  10.155403   7.553759   7.996892  37.227078   0.114943  11.798573  -0.026627   4.127047   1.170029  -3.249321   3.080880   1.588875 -11.356463  10.080690  -5.013215 -35.577204   0.115521 -11.956241   0.035623   5.058626  -2.779753   2.876411  -1.572073  -0.368687  -2.904085   6.513227   0.002607  -0.004217  -3.244987  -1.714131   0.641684  -0.282423  -0.000433  -0.000900   0.710917  -0.472824   4.190695   6.997213  -0.003664  -0.001493  -7.189446   2.832789   1.289033   1.885829  -0.001293   0.000810
